# xmcd
#
# Track frame offsets: 
#        150
#        25895
#        50435
#        61700
#        99362
#        132670
#        158790
#        180987
#        201950
#        229372
#        246032
#        265075
#        283017
#        293380
#        307080
#        325812
#
# Disc length: 4540 seconds
#
# Revision: 3
# Processed by: cddbd v1.5.2PL0 Copyright (c) Steve Scherf et al.
# Submitted via: ExactAudioCopy v0.99pb4
#
DISCID=df11ba10
DTITLE=Jeff Beck - Beckology [CD 3)
DYEAR=1991
DGENRE=Rock
TTITLE0=Cause We've Ended As Lovers
TTITLE1=Goodbye Pork Pie Hat
TTITLE2=Love Is Green
TTITLE3=Diamond Dust
TTITLE4=Freeway Jam (Live)
TTITLE5=The Pump
TTITLE6=People Get Ready
TTITLE7=Escape
TTITLE8=Gets Us All In The End
TTITLE9=Back On The Street
TTITLE10=Wild Thing
TTITLE11=The Train Kept A-Rollin'
TTITLE12=Sleep Walk
TTITLE13=The Stumble
TTITLE14=Big Block
TTITLE15=Where Were You
EXTD=3 Disc-Set\nLabel: Sony Music Entertainment Inc. - Epic\nEPC 4893
EXTD=19 2\nEAN/UPC: 5099748931924
EXTT0=
EXTT1=
EXTT2=
EXTT3=
EXTT4=
EXTT5=
EXTT6=
EXTT7=
EXTT8=
EXTT9=
EXTT10=
EXTT11=
EXTT12=
EXTT13=
EXTT14=
EXTT15=
PLAYORDER=
